<svg xmlns="http://www.w3.org/2000/svg" viewBox="0 0 1201.6 334.3"><path fill="#FFF" d="M214.5 123.4c-25.8-25.2-66.7-25.2-92.3 0-25.5 25.7-25.1 67.4.3 93s66.9 25.9 92.5.3c.4-.4 2.2-2.4 5.4-5.9l-30.7-31c-3.1 3.8-4.9 5.7-5 5.7-8.6 8.6-22.7 8.6-31.4 0-8.6-8.6-8.6-22.9-.3-31.4 8.4-8.4 22.5-8.4 31.2.3 0 0 27.5 27.5 82.3 82.6-22.6 32.8-60.4 53.4-101.1 53.4C98 290.4 43.2 235.2 43.2 167S98.1 43.7 165.4 43.7c39.3 0 75.4 19 97.9 49.9-3.6 4.2-12.8 14.8-27.8 31.8l30.4 30.4 50.3-57C290.1 39.3 231.3 0 165.3 0 73.9 0-.3 74.9-.3 167.1s74.1 167.2 165.5 167.2c41.6 0 76-13.1 109.6-42 30.5-26.1 45-62.3 45-62.3L214.5 123.4zm679.25 66.283v80.1h-32.6v-81.7c-3.3-18.8-19.8-33.1-39.7-33.1-20.2 0-37 14.6-39.9 34v80.9h-32.6v-145.5l25.1 15.9c12.8-11 29.4-17.6 47.4-17.6 38.3.2 69.8 29.7 72.3 67zm-342.5-83.7c-10.9 5.7-20.5 13.2-28.6 22.3-12-16.7-31.7-27.6-53.8-27.6-36.7 0-66.4 29.7-66.4 66.5s29.7 66.5 66.4 66.5c11.9 0 23.2-3.1 32.8-8.6 3.6 11.9 9.3 22.6 16.7 32.2-14.6 8.1-31.5 12.8-49.5 12.8-56.6 0-102.6-46-102.6-102.6s46-102.8 102.7-102.8c33.6-.3 63.6 16.2 82.3 41.3zm48.5 163.9c-40 0-72.5-32.4-72.5-72.5s32.4-72.5 72.5-72.5 72.5 32.4 72.5 72.5-32.3 72.5-72.5 72.5zm0-32.4c22.3 0 40.2-18.1 40.2-40.2s-18.1-40.2-40.2-40.2c-22 0-40.2 18.1-40.2 40.2s18.1 40.2 40.2 40.2zm92.8-112.7h32.2v144.9h-32.2v-144.9zm350.3-25.6h-92.2v52.6h89.5v32.7h-89.5v52.6h92.2v32.8h-126.8v-203.4h126.8v32.7zm67.6 97.9l-49.6-72.1h41c1.3 2.1 3.1 4.9 5.3 8.4 2.8 4 5.6 8.4 8.4 12.8 2.9 4.5 5.7 8.8 8.4 12.8 2.6 4 4.6 7.1 5.7 9.2l1.7 2.9 29.6-46.2h39l-48.8 71 50.5 73.9h-40.4l-31.1-47.3-1.7 2.5c-1.4 2.1-3.3 5.2-6.1 9.3-2.8 4.2-5.7 8.6-8.8 13.5-3.1 4.7-6 9.2-8.8 13.5-2.2 3.6-4 6.4-5.3 8.4h-38.6l49.6-72.6zm-424.1-110.8c0-5.9 2.2-11 6.6-15.5s9.5-6.6 15.5-6.6c6.1 0 11.4 2.2 15.8 6.6 4.3 4.2 6.6 9.3 6.6 15.5s-2.2 11.4-6.6 15.8c-4.2 4.3-9.3 6.6-15.5 6.6s-11.4-2.2-15.8-6.6c-4.3-4.3-6.6-9.5-6.6-15.8z"/></svg>