<svg id="Layer_1" data-name="Layer 1" xmlns="http://www.w3.org/2000/svg" xmlns:xlink="http://www.w3.org/1999/xlink" viewBox="0 0 719.6 534.97"><defs><style>.cls-1{opacity:0.4;}.cls-2{fill:#f5deff;}.cls-3{opacity:0.1;}.cls-4{fill:#adb6b7;}.cls-5{fill:#8604f2;opacity:0.3;}.cls-6{opacity:0.5;}.cls-7{fill:#9945df;}.cls-8{fill:#484d48;}.cls-9{fill:#3b3b37;}.cls-10{fill:#eadde5;}.cls-11{isolation:isolate;}.cls-12{fill:#9626e7;}.cls-13{fill:#8220f6;}.cls-14{fill:#893cf4;}.cls-15{fill:#8c2eff;}.cls-16{fill:url(#linear-gradient);}.cls-17{fill:#e5e5e4;}.cls-18{fill:#fff;}.cls-19{fill:#f2f2f1;}</style><linearGradient id="linear-gradient" x1="362.01" y1="219.95" x2="327.98" y2="294.16" gradientUnits="userSpaceOnUse"><stop offset="0" stop-color="#fff"/><stop offset="1" stop-color="#f2f2f1"/></linearGradient></defs><g id="Circle_Landing" data-name="Circle Landing" class="cls-1"><path class="cls-2" d="M419.23,285.27c-35.69-20.61-93.38-20.61-128.83,0l-.5.29C267.07,299,259.3,317.85,266.53,335c3.84,9.12,11.94,17.78,24.27,24.91,35.7,20.61,93.4,20.61,128.87,0s35.26-54-.44-74.64Z"/><path class="cls-2" d="M435.86,275.61c-44.87-25.9-117.62-25.9-162.19,0-1.2.7-2.37,1.4-3.49,2.12l2.27.9c1-.64,2.07-1.27,3.15-1.9,43.51-25.28,114.54-25.28,158.33,0s44,66.43.53,91.72-114.55,25.28-158.35,0c-16.07-9.28-26.28-20.69-30.6-32.67l-2.76.09c4.39,12.37,14.88,24.14,31.43,33.69,44.87,25.91,117.64,25.91,162.22,0s44.33-68-.54-93.95Z"/><path class="cls-2" d="M452.05,266.2c-53.84-31.09-141.19-31.09-194.69,0-2.19,1.27-4.3,2.59-6.32,3.93l6.07,2.4c1.74-1.14,3.54-2.25,5.42-3.35,50.67-29.44,133.39-29.44,184.39,0s51.27,77.37.61,106.81-133.4,29.45-184.41,0c-19.37-11.18-31.42-25-36.14-39.53l-7.32.27C224.53,352.22,237.3,367,258,379c53.86,31.09,141.21,31.09,194.72,0s53.21-81.69-.65-112.78Z"/><path class="cls-2" d="M485.2,246.94c-72.25-41.71-189.42-41.71-261.2,0s-71.4,109.59.84,151.3c30.41,17.55,68.76,27.72,108.34,30.49l-.38-9.06c-35.47-2.76-69.75-12-97-27.78-66.18-38.21-66.53-100.39-.77-138.61s173.11-38.21,239.29,0c42.88,24.76,58.13,59.57,45.68,91.4l14.68,3.07c14.34-35-2.17-73.52-49.44-100.81Z"/><path class="cls-2" d="M213,405.15C134.12,359.62,133.7,285.56,212,240s206.21-45.52,285.06,0,79.26,119.59.92,165.11-206.2,45.53-285,0ZM499.65,238.54c-38.88-22.45-90.48-34.81-145.29-34.81s-106.28,12.36-144.91,34.81-59.81,52.3-59.63,84,21.69,61.6,60.58,84.05,90.49,34.81,145.3,34.81S462,429.09,500.6,406.64s59.81-52.3,59.63-84.05-21.69-61.6-60.58-84Z"/><path class="cls-2" d="M616.35,269.19l-6.28,1.08c27.94,45.56,18.58,97.1-28.18,138.49l5.25,2.17c29.54-26,45.31-56.46,45.12-88.34-.1-18.47-5.56-36.47-15.91-53.4Zm-75.76-65.57c-51.24-26.9-117-41.62-186.47-41.62-74.05,0-143.58,16.7-195.77,47S77.54,279.7,77.79,322.59s29.3,83.22,81.83,113.55,122.26,47,196.31,47c44.34,0,87.05-6,125.4-17.3l-3.2-3.29c-101.45,29.74-228.95,20.06-314-29.05C58.17,372.36,57.61,272.82,162.87,211.65c102.07-59.32,266.73-61.12,373.22-5.41l4.5-2.62Z"/><path class="cls-2" d="M579.27,192.27c-30.46-17.59-66-31.21-105.48-40.48a537.64,537.64,0,0,0-239.45,0c-39.42,9.27-74.76,22.89-105,40.48s-53.66,38.11-69.55,61c-15.34,22.08-23,45.41-22.9,69.35s8.1,47.27,23.68,69.35c1,1.43,2.05,2.86,3.12,4.27L69.81,395c-50.2-66.12-28.93-146.13,64-200.15,121.16-70.41,319-70.41,440.94,0s122.61,185,1.44,255.41c-75.4,43.82-180.47,60.38-278.48,49.66l-1.56,3.68a545.3,545.3,0,0,0,59.88,3.25,522.69,522.69,0,0,0,119.66-13.49c39.42-9.27,74.75-22.89,105-40.49s53.67-38.1,69.55-61c15.34-22.09,23-45.42,22.9-69.35s-8.1-47.27-23.68-69.35c-16.13-22.86-39.77-43.38-70.24-61Z"/><path class="cls-2" d="M599.72,180.38c-33.25-19.19-72-34.06-115.1-44.17a553.86,553.86,0,0,0-74.29-12.08l.46,1.21c68.68,6.59,134.64,25.19,187.64,55.79,135.1,78,135.82,204.92,1.61,282.91S246.7,542,111.6,464-24.2,259.13,110,181.13a370,370,0,0,1,51.7-24.69l-.43-1.16a373.17,373.17,0,0,0-52.56,25.11c-33,19.2-58.58,41.58-75.89,66.53C16.1,271,7.7,296.47,7.84,322.59s8.85,51.58,25.85,75.68c17.6,24.94,43.39,47.33,76.63,66.52s72,34.06,115.11,44.18a573.41,573.41,0,0,0,130.73,14.72A571.22,571.22,0,0,0,486.72,509c43-10.12,81.57-25,114.61-44.18s58.56-41.58,75.88-66.53c16.73-24.09,25.15-49.56,25-75.67s-8.84-51.58-25.85-75.67c-17.6-25-43.39-47.34-76.64-66.54Z"/></g><g class="cls-3"><path d="M486.67,240.62c-15.72-9.08-34-16.11-54.44-20.89a277.28,277.28,0,0,0-123.56,0c-20.34,4.79-38.57,11.81-54.19,20.89s-27.7,19.67-35.9,31.47c-7.91,11.39-11.89,23.43-11.82,35.78s4.18,24.39,12.22,35.78c6.43,9.12,15.18,17.5,26.07,25l-21.81,12.68-2-1.14a11.54,11.54,0,0,0-10.43,0L53.18,471.83c-2.86,1.67-2.84,4.38,0,6l25.27,14.6a11.54,11.54,0,0,0,10.43,0l157.65-91.62c2.86-1.66,2.84-4.38,0-6l-2-1.14L266.38,381a211.18,211.18,0,0,0,43.28,15,277.33,277.33,0,0,0,123.57,0c20.35-4.79,38.58-11.81,54.2-20.89s27.69-19.66,35.89-31.46c7.91-11.4,11.89-23.44,11.82-35.79s-4.18-24.39-12.22-35.79c-8.33-11.8-20.52-22.38-36.25-31.46Z"/></g><path class="cls-4" d="M260.07,260.42c-24.7,14.35-37.06,33.17-37.12,52l.09-32.32c.06-18.85,12.43-37.67,37.12-52,22.95-13.34,52.6-20.52,82.8-21.54q0,16.16-.1,32.32C312.67,239.9,283,247.08,260.07,260.42Z"/><path class="cls-4" d="M342.86,238.88q.06-16.17.1-32.32c35.22-1.2,71.18,6,98.13,21.54,25.18,14.54,37.76,33.67,37.7,52.77l-.09,32.32c.06-19.1-12.52-38.23-37.7-52.77C414.05,244.86,378.09,237.68,342.86,238.88Z"/><path class="cls-4" d="M500.1,280.93,500,313.25c0,11.07-3.65,21.86-10.74,32.09l.09-32.32C496.46,302.79,500.07,292,500.1,280.93Z"/><path class="cls-5" d="M478.79,280.87l-.09,32.31c-.05,18.86-12.41,37.68-37.11,52-49.73,28.9-130.89,28.9-180.93,0-25.18-14.54-37.76-33.67-37.71-52.77l.09-32.32c0,19.1,12.53,38.23,37.71,52.77,50,28.89,131.21,28.89,180.93,0C466.38,318.54,478.74,299.72,478.79,280.87Z"/><g class="cls-6"><path class="cls-7" d="M441.09,242.4c50,28.89,50.3,75.9.59,104.79s-130.89,28.9-180.93,0-50.31-75.91-.59-104.81S391,213.5,441.09,242.4Z"/></g><path class="cls-4" d="M201.64,312.41l.09-32.32v.41c.07,11.22,3.8,22.16,11.11,32.51,5.85,8.28,13.79,15.91,23.68,22.75q4.38,3,9.26,5.84T255.9,347a191.67,191.67,0,0,0,39.33,13.63,252.11,252.11,0,0,0,112.28,0c18.49-4.34,35.05-10.73,49.25-19s25.16-17.86,32.6-28.58l-.09,32.32c-7.44,10.72-18.42,20.33-32.6,28.58s-30.77,14.64-49.25,19a252.11,252.11,0,0,1-112.28,0,191.67,191.67,0,0,1-39.33-13.63q-5.24-2.53-10.12-5.35t-9.26-5.84c-9.89-6.84-17.83-14.47-23.68-22.75-7.31-10.35-11-21.29-11.11-32.51Z"/><polygon class="cls-8" points="221.03 367.52 220.96 392.69 205.86 383.98 205.93 358.8 221.03 367.52"/><polygon class="cls-9" points="251.56 349.83 251.49 375.01 220.96 392.69 221.03 367.52 251.56 349.83"/><path class="cls-8" d="M251.56,349.83,221,367.52l-15.1-8.72,30.53-17.69c2.28,1.57,4.68,3.09,7.22,4.56S248.84,348.52,251.56,349.83Z"/><path class="cls-10" d="M489.36,313c-7.44,10.72-18.41,20.33-32.6,28.58s-30.76,14.64-49.25,19a252.11,252.11,0,0,1-112.28,0A191.67,191.67,0,0,1,255.9,347q-5.24-2.54-10.12-5.35t-9.26-5.84c-9.89-6.84-17.83-14.47-23.68-22.75-7.31-10.35-11-21.29-11.11-32.51s3.55-22.16,10.75-32.52c7.45-10.72,18.42-20.34,32.61-28.58s30.76-14.63,49.24-19a252.31,252.31,0,0,1,112.28,0c18.53,4.35,35.17,10.74,49.46,19S481.43,237.26,489,248c7.3,10.36,11,21.3,11.1,32.52S496.55,302.66,489.36,313ZM260.75,332.9c50,28.89,131.21,28.89,180.93,0s49.45-75.91-.59-104.8-131.21-28.89-180.93,0-49.46,75.91.59,104.8Z"/><g class="cls-11"><path class="cls-12" d="M225.94,370l-.09,32.32a3.32,3.32,0,0,1-1.93,2.72L224,372.7A3.28,3.28,0,0,0,225.94,370Z"/><path class="cls-13" d="M46.26,472.25l.1-32.32a3.32,3.32,0,0,0,2,2.76L48.24,475A3.36,3.36,0,0,1,46.26,472.25Z"/><polygon class="cls-14" points="224.01 372.7 223.91 405.02 80.67 488.27 80.76 455.95 224.01 372.7"/><polygon class="cls-13" points="71.29 455.95 71.2 488.27 48.24 475.01 48.33 442.69 71.29 455.95"/><path class="cls-13" d="M80.76,456l-.09,32.32a10.46,10.46,0,0,1-9.47,0L71.29,456A10.46,10.46,0,0,0,80.76,456Z"/><path class="cls-15" d="M224,367.22c2.61,1.5,2.62,4,0,5.48L80.76,456a10.46,10.46,0,0,1-9.47,0l-23-13.26c-2.62-1.51-2.63-4,0-5.49L191.54,354a10.49,10.49,0,0,1,9.48,0l1.79,1,19.38,11.19Z"/></g><g class="cls-11"><path class="cls-16" d="M352.09,222.75q-5.5-3.19-15.77,2.72-21.24,12.27-21.18,37.34,0,12.13,5.56,15.68l.34.21,32.19,18.7a3.79,3.79,0,0,1-.34-.2q-5.52-3.56-5.56-15.68-.06-25.08,21.18-37.34,10.26-5.93,15.77-2.72Z"/><path class="cls-17" d="M368.51,244.18q10.41-6,15.92-2.63T390,256.9a44.61,44.61,0,0,1-5.51,21.9,41.07,41.07,0,0,1-15.81,16q-10.28,5.93-15.77,2.37t-5.56-15.68Q347.27,256.44,368.51,244.18Z"/></g><g class="cls-11"><polygon class="cls-18" points="354.17 236.29 321.98 217.59 321.95 206.96 354.14 225.67 354.17 236.29"/><path class="cls-18" d="M368.55,60l32.19,18.7q6.27,3.65,6.31,15.91a58.38,58.38,0,0,1-4.92,23.48q-5,11.52-22.13,37.07-14.42,21.3-20.16,36.76a95,95,0,0,0-5.7,33.74L322,207a95.09,95.09,0,0,1,5.7-33.74q5.73-15.45,20.16-36.76Q365,110.92,369.94,99.39a58.35,58.35,0,0,0,4.92-23.48Q374.83,63.65,368.55,60Z"/><path class="cls-18" d="M394.13,22.58l32.19,18.71a22.55,22.55,0,0,0-3.36-1.6L390.77,21A23.58,23.58,0,0,1,394.13,22.58Z"/><polygon class="cls-19" points="327.37 126.99 295.18 108.28 282.95 86.06 315.14 104.77 327.37 126.99"/><path class="cls-18" d="M315.14,104.77,283,86.06Q312.25,50.35,345.77,31q28.34-16.37,45-10L423,39.69q-16.66-6.36-45,10Q344.42,69.05,315.14,104.77Z"/><path class="cls-17" d="M423,39.69q16.67,6.36,16.75,34.42a90,90,0,0,1-3.12,24A125.7,125.7,0,0,1,427,122.19q-6.4,12.52-22.11,35.72Q391.51,177.8,387,188.41a60.32,60.32,0,0,0-4.49,24.05l0,7.47-28.33,16.36,0-10.62a95,95,0,0,1,5.7-33.74q5.73-15.45,20.16-36.76,17.14-25.54,22.13-37.07a58.38,58.38,0,0,0,4.92-23.48q0-13.94-8.15-16.75t-23.3,6A131.64,131.64,0,0,0,350.17,103q-11.7,11.25-22.8,24l-12.23-22.22Q344.44,69.05,378,49.7,406.3,33.33,423,39.69Z"/></g></svg>