<svg xmlns="http://www.w3.org/2000/svg" viewBox="0 0 122 28"><g fill-rule="evenodd" fill="#23AF91"><path d="M95.335 13.987c0-.714 0-1.386-.023-2.006a12.171 12.171 0 00-.174-1.746 5.886 5.886 0 00-.489-1.52 4.923 4.923 0 00-.966-1.339 6.177 6.177 0 00-1.962-1.352 6.435 6.435 0 00-2.508-.47 6.525 6.525 0 00-2.517.47c-.74.315-1.41.772-1.974 1.346a4.88 4.88 0 00-.962 1.338 5.81 5.81 0 00-.482 1.521 12.3 12.3 0 00-.167 1.745 66.46 66.46 0 00-.02 2.007c.005.714 0 1.38.02 2.005a12.3 12.3 0 00.167 1.745 5.78 5.78 0 00.482 1.52c.243.498.568.95.962 1.34a6.059 6.059 0 001.974 1.343 6.48 6.48 0 002.517.472 6.387 6.387 0 002.508-.472 6.107 6.107 0 001.962-1.344c.394-.39.72-.841.966-1.338.231-.482.396-.994.49-1.52.098-.576.155-1.158.17-1.741.02-.624.028-1.292.023-2.005l.003.001zm-3.237 0c0 .791-.011 1.45-.038 1.974-.016.43-.058.86-.129 1.285a3.167 3.167 0 01-.257.818c-.099.21-.229.403-.385.574-.241.276-.54.495-.876.642a2.996 2.996 0 01-1.196.242 3.048 3.048 0 01-1.202-.242 2.494 2.494 0 01-.899-.642 2.258 2.258 0 01-.385-.574 3.083 3.083 0 01-.244-.818 10.718 10.718 0 01-.129-1.285 46.227 46.227 0 01-.035-1.974c0-.791.012-1.451.035-1.975.017-.43.06-.86.129-1.285.043-.282.125-.558.244-.818a2.28 2.28 0 01.385-.574 2.51 2.51 0 01.899-.642 2.98 2.98 0 011.202-.242c.411-.004.819.078 1.196.242.336.147.635.366.876.642.156.171.286.365.385.574.123.26.21.535.257.818.07.425.113.854.129 1.285.028.522.038 1.183.038 1.975zm29.028-8.004a.286.286 0 00-.284-.284h-2.67a.285.285 0 00-.284.284v9.864l-6.512-10.068c-.044-.069-.082-.08-.179-.08h-2.476a.288.288 0 00-.284.284v16.006a.286.286 0 00.284.283h2.669a.284.284 0 00.282-.283v-9.89l6.514 10.092c.045.068.08.08.178.08h2.475a.285.285 0 00.284-.283l.003-16.005zm-17.9 0a.285.285 0 00-.284-.284h-2.667a.285.285 0 00-.284.284v16.005c0 .156.127.283.284.284h2.667a.285.285 0 00.284-.284V5.983zM71.29 13.987c0-.796.01-1.459.033-1.987.016-.43.059-.86.128-1.284.247-1.426 1.339-2.267 2.732-2.267.91.008 1.734.344 2.26 1.11.24.357.413.753.515 1.17a.086.086 0 00.092.072h3.14c.045 0 .062-.031.054-.075-.343-1.943-1.379-3.689-3.21-4.553a6.6 6.6 0 00-2.875-.61c-1.768 0-3.258.605-4.469 1.816a4.795 4.795 0 00-1.353 2.487c-.185.931-.279 2.305-.28 4.12-.002 1.815.091 3.188.28 4.119.189.947.66 1.816 1.35 2.492 1.21 1.21 2.699 1.815 4.468 1.815a6.619 6.619 0 002.875-.61c1.831-.864 2.868-2.61 3.21-4.552.008-.045-.008-.075-.053-.075h-3.142a.085.085 0 00-.093.07 3.676 3.676 0 01-.513 1.17c-.527.771-1.351 1.104-2.26 1.11-1.394 0-2.486-.84-2.733-2.265-.07-.425-.112-.854-.128-1.285a60.556 60.556 0 01-.027-1.988zM38.122 5.983a.285.285 0 00-.283-.284H35.17a.285.285 0 00-.284.284v16.006a.285.285 0 00.284.283h2.668a.285.285 0 00.283-.283v-4.698l2.141-2.56 4.398 7.456a.179.179 0 00.16.085h3.241c.15 0 .176-.093.102-.22l-5.758-9.762 5.283-6.337c.106-.128.061-.25-.106-.25H44.04a.128.128 0 00-.11.051l-5.808 6.964V5.983zm19.436 13.543c-1.501 0-2.863-1.39-2.863-3.05V5.983a.285.285 0 00-.284-.284h-2.668a.285.285 0 00-.283.284v10.452c0 3.654 2.733 5.977 6.098 5.977 3.365 0 6.098-2.323 6.098-5.977V5.983a.286.286 0 00-.284-.284h-2.669a.285.285 0 00-.282.284v10.493c0 1.658-1.363 3.05-2.863 3.05z" fill-rule="nonzero"/><path d="M8.071 13.987l8.282 8.283 5.228-5.227a2.365 2.365 0 013.339 3.34l-6.899 6.899a2.381 2.381 0 01-3.339 0l-9.953-9.955v5.917a2.365 2.365 0 01-4.729 0V4.723a2.365 2.365 0 014.73 0v5.917L14.68.687a2.38 2.38 0 013.34 0l6.904 6.899a2.365 2.365 0 01-3.34 3.34l-5.227-5.228-8.286 8.29zm8.286-2.367a2.367 2.367 0 10-.003 4.737 2.367 2.367 0 00.003-4.738v.001z"/></g></svg>